<?xml version="1.0" standalone="no"?>
<!DOCTYPE svg PUBLIC "-//W3C//DTD SVG 20010904//EN"
 "http://www.w3.org/TR/2001/REC-SVG-20010904/DTD/svg10.dtd">
<svg version="1.0" xmlns="http://www.w3.org/2000/svg"
 width="378.000000pt" height="100.000000pt" viewBox="0 0 378.000000 100.000000"
 preserveAspectRatio="xMidYMid meet">

<g transform="translate(0.000000,100.000000) scale(0.100000,-0.100000)"
fill="#000000" stroke="none">
<path d="M130 891 c0 -6 6 -14 14 -17 9 -3 13 -15 10 -30 -2 -13 0 -24 5 -24
5 0 7 -17 4 -38 -3 -23 1 -53 11 -75 13 -33 14 -43 2 -75 -37 -99 -56 -145
-64 -155 -5 -7 -12 -25 -16 -42 -4 -16 -17 -38 -29 -47 -12 -9 -18 -20 -13
-25 4 -4 21 7 36 25 l28 34 7 -31 c3 -17 4 -39 1 -48 -3 -10 -1 -25 5 -33 9
-13 10 -13 7 0 -2 8 10 32 26 53 22 29 29 48 28 76 -2 27 3 43 17 55 29 26 46
83 31 101 -17 20 -20 65 -4 65 42 0 59 -31 27 -49 -16 -9 -16 -10 -2 -11 9 0
29 -10 44 -22 23 -18 26 -27 22 -55 -3 -18 -2 -33 4 -33 5 0 9 -8 9 -18 0 -10
14 -39 30 -65 33 -52 36 -62 18 -51 -7 5 -9 2 -6 -8 5 -12 0 -14 -25 -12 -29
3 -30 2 -14 -11 11 -7 26 -11 35 -8 14 5 15 3 5 -8 -15 -15 -17 -49 -3 -49 5
0 15 18 21 40 13 44 16 46 42 26 27 -20 21 -37 -29 -83 -30 -29 -40 -43 -29
-43 21 0 75 50 75 70 1 11 4 9 13 -5 23 -39 51 -65 70 -65 14 0 7 11 -27 43
-50 46 -56 63 -28 83 26 20 30 17 42 -26 14 -52 35 -54 25 -2 -4 20 -8 42 -8
49 0 7 -4 10 -9 7 -14 -9 -9 3 24 56 19 31 32 65 32 85 0 19 4 31 8 29 4 -3 8
6 8 20 0 14 2 26 5 26 3 0 26 -13 53 -30 33 -21 41 -30 27 -30 -15 0 -17 -2
-6 -9 8 -5 10 -14 6 -21 -5 -8 -4 -11 3 -6 6 3 13 2 17 -4 12 -20 26 -10 15
10 -6 11 -7 20 -2 20 5 0 15 -11 22 -25 10 -19 16 -22 22 -13 8 13 14 7 44
-47 6 -11 16 -19 23 -17 9 2 10 -4 6 -19 -5 -15 -3 -20 6 -17 19 6 25 108 7
119 -7 4 -16 3 -20 -3 -9 -15 -103 30 -147 71 -42 39 -34 66 18 57 20 -3 42
-6 48 -6 7 0 33 -20 58 -45 51 -51 53 -51 25 4 -36 71 -87 96 -145 69 -37 -17
-56 3 -29 33 l19 22 -27 -18 c-27 -17 -39 -47 -17 -43 6 2 13 -2 16 -8 2 -6
-7 -14 -21 -16 -25 -5 -42 14 -30 33 3 5 1 9 -4 9 -5 0 -12 9 -15 20 -5 19
-14 20 -122 20 -75 0 -114 4 -110 10 3 6 53 10 113 11 65 0 99 3 87 8 -11 5
-59 8 -107 7 -77 -1 -90 -4 -112 -25 -14 -14 -26 -31 -26 -40 0 -11 4 -10 16
5 14 17 15 17 10 1 -3 -10 -6 -30 -6 -43 0 -34 -19 -30 -26 6 -4 16 -28 52
-55 79 -27 28 -49 52 -49 55 0 2 13 7 29 11 35 7 48 32 22 40 -11 3 -30 16
-43 28 -59 55 -78 70 -78 58z m354 -255 c-4 -10 5 -18 28 -25 18 -5 28 -10 21
-10 -6 -1 -21 -17 -33 -37 -12 -19 -25 -33 -28 -30 -3 3 -11 1 -19 -6 -11 -9
-12 -7 -7 7 6 15 4 16 -17 5 -20 -10 -22 -10 -11 1 18 20 15 28 -10 22 -21 -4
-21 -3 -5 7 18 11 18 12 0 27 -10 8 -12 12 -5 8 21 -11 34 5 20 23 -11 15 -11
15 2 5 12 -9 21 -9 40 2 14 7 26 13 27 14 1 1 0 -6 -3 -13z m-259 -84 c-3 -17
-15 -38 -26 -48 -18 -16 -19 -16 -19 5 0 23 38 86 47 77 3 -2 2 -18 -2 -34z
m315 28 c0 -5 -4 -10 -10 -10 -5 0 -10 5 -10 10 0 6 5 10 10 10 6 0 10 -4 10
-10z m-36 -90 c25 -9 25 -9 10 -52 -14 -37 -20 -57 -23 -78 -1 -3 -6 2 -11 10
-6 10 -10 11 -10 3 0 -7 -6 -13 -13 -13 -13 0 -47 81 -47 112 0 25 50 35 94
18z m-332 -54 c6 -28 -7 -55 -19 -42 -4 5 -2 11 5 13 10 4 9 8 -4 18 -11 7
-15 19 -11 29 9 22 23 13 29 -18z"/>
<path d="M106 877 c3 -10 9 -15 12 -12 3 3 0 11 -7 18 -10 9 -11 8 -5 -6z"/>
<path d="M2380 620 l0 -250 165 0 165 0 0 35 0 35 -130 0 -130 0 0 75 0 75 95
0 95 0 0 30 0 30 -95 0 -95 0 0 75 0 75 130 0 130 0 0 35 0 35 -165 0 -165 0
0 -250z"/>
<path d="M2790 620 l0 -250 35 0 35 0 1 208 0 207 19 -65 c10 -36 23 -84 29
-107 11 -40 14 -43 45 -43 l32 0 24 93 c12 50 27 99 31 107 5 8 9 -78 9 -192
l0 -208 35 0 35 0 0 250 0 251 -57 -3 -57 -3 -26 -105 -27 -105 -11 40 c-6 22
-18 70 -28 108 l-16 67 -54 0 -54 0 0 -250z"/>
<path d="M3210 620 l0 -250 40 0 40 0 0 95 0 95 50 0 50 0 44 -95 45 -95 40 0
c23 0 41 2 41 5 0 3 -21 47 -47 99 l-47 94 32 27 c56 47 67 161 20 221 -34 43
-75 54 -198 54 l-110 0 0 -250z m235 155 c33 -32 34 -89 3 -122 -18 -20 -31
-23 -90 -23 l-68 0 0 85 0 85 65 0 c57 0 69 -3 90 -25z"/>
<path d="M548 814 c-16 -58 -31 -64 -132 -55 -8 0 -20 18 -26 39 -7 20 -16 41
-21 47 -13 13 -11 4 6 -46 9 -24 14 -48 12 -54 -3 -6 25 -10 78 -10 46 0 81 3
79 6 -2 4 5 32 15 63 10 31 14 56 10 56 -5 0 -15 -21 -21 -46z"/>
<path d="M125 840 c4 -6 11 -8 16 -5 14 9 11 15 -7 15 -8 0 -12 -5 -9 -10z"/>
<path d="M679 801 c-32 -33 -31 -40 3 -30 41 11 38 12 38 -7 0 -12 -7 -15 -24
-12 -16 3 -27 0 -31 -10 -7 -19 -3 -23 24 -25 15 -1 20 -6 16 -17 -3 -8 4 -4
15 9 26 30 25 54 -2 84 -21 22 -24 23 -39 8z"/>
<path d="M440 795 c-11 -13 -7 -15 25 -15 32 0 36 2 25 15 -7 8 -18 15 -25 15
-7 0 -18 -7 -25 -15z"/>
<path d="M247 473 c-4 -3 -1 -13 6 -21 8 -11 8 -14 0 -9 -9 5 -9 0 0 -24 12
-30 12 -30 18 -7 12 39 10 68 -4 68 -8 0 -17 -3 -20 -7z"/>
<path d="M300 460 c0 -23 15 -27 23 -6 3 8 -1 17 -9 20 -9 4 -14 -1 -14 -14z"/>
<path d="M756 427 c3 -10 9 -15 12 -12 3 3 0 11 -7 18 -10 9 -11 8 -5 -6z"/>
<path d="M265 370 c3 -4 16 -10 30 -12 13 -3 22 -2 20 2 -3 4 -16 10 -30 12
-13 3 -22 2 -20 -2z"/>
<path d="M304 307 c-3 -10 -18 -13 -49 -9 -31 3 -45 0 -45 -8 0 -7 6 -10 14
-7 8 3 16 -2 19 -14 4 -15 1 -19 -12 -14 -12 3 -18 0 -18 -10 0 -18 20 -19 71
-1 41 14 61 38 52 62 -7 18 -25 18 -32 1z"/>
<path d="M590 300 c9 -6 11 -10 3 -10 -7 0 -10 -7 -7 -15 4 -8 13 -15 21 -15
8 0 11 -5 7 -12 -5 -7 -3 -8 7 -2 8 4 24 7 36 6 11 -2 24 2 28 7 3 6 0 11 -7
11 -7 0 -19 9 -26 20 -8 13 -23 20 -45 20 -24 0 -28 -3 -17 -10z m45 -28 c-3
-3 -11 0 -18 7 -9 10 -8 11 6 5 10 -3 15 -9 12 -12z"/>
<path d="M697 253 c-7 -11 10 -40 18 -31 4 4 3 14 -3 24 -5 9 -12 12 -15 7z"/>
<path d="M730 250 c0 -5 5 -10 11 -10 5 0 7 5 4 10 -3 6 -8 10 -11 10 -2 0 -4
-4 -4 -10z"/>
<path d="M182 238 c-7 -7 -12 -18 -12 -26 0 -11 -3 -12 -13 -3 -8 6 -17 8 -20
4 -10 -9 31 -35 44 -28 6 4 8 14 5 22 -4 9 -1 22 5 29 14 17 7 18 -9 2z"/>
<path d="M453 220 c-18 -27 -17 -30 12 -30 28 0 31 8 13 33 -12 16 -14 16 -25
-3z"/>
<path d="M735 220 c-3 -5 -2 -10 4 -10 5 0 13 5 16 10 3 6 2 10 -4 10 -5 0
-13 -4 -16 -10z"/>
<path d="M94 179 c-4 -8 -3 -9 4 -5 7 4 12 1 12 -8 0 -9 7 -16 16 -16 21 0 14
34 -8 38 -9 2 -20 -2 -24 -9z"/>
<path d="M797 183 c-13 -12 -7 -33 8 -33 8 0 15 7 15 16 0 9 5 12 12 8 7 -4 8
-3 4 4 -8 13 -29 16 -39 5z"/>
<path d="M180 170 c-9 -6 -10 -10 -3 -10 6 0 15 5 18 10 8 12 4 12 -15 0z"/>
<path d="M220 160 c-13 -8 -12 -10 3 -10 9 0 17 5 17 10 0 12 -1 12 -20 0z"/>
<path d="M488 163 c7 -3 16 -2 19 1 4 3 -2 6 -13 5 -11 0 -14 -3 -6 -6z"/>
<path d="M692 158 c5 -15 28 -23 28 -10 0 5 -7 13 -16 16 -10 4 -14 1 -12 -6z"/>
</g>
</svg>
