<?xml version="1.0" standalone="no"?>
<!DOCTYPE svg PUBLIC "-//W3C//DTD SVG 20010904//EN"
 "http://www.w3.org/TR/2001/REC-SVG-20010904/DTD/svg10.dtd">
<svg version="1.0" xmlns="http://www.w3.org/2000/svg"
 width="150.000000pt" height="150.000000pt" viewBox="0 0 150.000000 150.000000"
 preserveAspectRatio="xMidYMid meet">

<g transform="translate(0.000000,150.000000) scale(0.100000,-0.100000)"
fill="#000000" stroke="none">
<path d="M390 1407 c0 -8 5 -19 10 -22 6 -4 7 -11 4 -17 -4 -6 -12 -1 -20 13
-11 19 -13 20 -14 6 0 -10 15 -27 35 -38 30 -18 33 -23 22 -40 -9 -15 -8 -29
6 -68 16 -46 16 -53 1 -93 -33 -90 -39 -105 -55 -129 -9 -13 -20 -39 -23 -56
-4 -19 -15 -35 -27 -38 -10 -4 -19 -11 -19 -16 0 -17 18 -9 43 21 25 29 25 29
32 7 11 -34 12 -41 4 -52 -4 -6 -4 -17 1 -25 8 -12 10 -12 10 -1 0 7 13 29 30
47 23 26 28 40 24 62 -4 21 1 36 20 59 34 41 48 77 33 92 -8 8 -5 11 14 11 31
0 84 -52 76 -74 -7 -18 15 -76 48 -124 29 -43 24 -60 -17 -56 -26 3 -29 2 -18
-12 7 -8 19 -13 26 -10 10 4 12 -3 7 -24 -9 -46 14 -37 27 10 12 44 16 46 43
25 26 -19 15 -45 -33 -81 -41 -30 -49 -44 -26 -44 7 0 29 17 47 38 l34 37 34
-37 c18 -21 40 -38 47 -38 23 0 15 14 -26 44 -48 36 -59 62 -33 81 26 21 33
18 39 -15 4 -16 13 -35 22 -42 13 -11 14 -8 8 27 -4 22 -12 45 -17 51 -6 7 -2
20 10 35 37 48 60 104 50 122 -7 12 -6 17 1 17 6 0 9 4 6 9 -3 5 1 14 8 20 12
10 23 7 56 -14 23 -15 39 -29 36 -32 -7 -7 12 -43 22 -43 4 0 7 11 7 25 -1 16
-14 35 -38 52 -20 16 -36 30 -37 33 0 3 9 11 20 18 16 10 30 10 63 1 52 -14
67 -25 67 -53 0 -14 3 -17 8 -8 6 9 14 7 30 -8 12 -12 22 -18 22 -15 0 18 -34
66 -66 94 -31 28 -42 32 -68 26 -17 -4 -41 -9 -53 -12 -26 -6 -31 14 -10 36 6
8 0 6 -15 -3 -16 -10 -25 -23 -21 -31 2 -8 8 -13 11 -12 4 1 8 -2 10 -8 1 -5
-9 -11 -23 -13 -17 -2 -25 1 -25 12 0 8 -5 27 -12 41 -11 25 -12 25 -130 25
-72 0 -118 4 -118 10 0 11 17 13 138 12 45 0 82 3 82 8 0 4 -47 8 -105 8 -114
0 -126 -6 -131 -57 -2 -15 -8 -39 -13 -52 -9 -24 -9 -24 -16 7 -4 19 -27 52
-56 80 -51 50 -59 64 -35 64 8 0 22 7 31 16 15 15 14 18 -13 35 -34 20 -66 46
-93 73 -16 17 -19 17 -19 3z m130 -227 c8 -5 11 -10 7 -10 -5 0 -5 -5 -1 -11
4 -8 9 -7 16 2 8 11 9 11 5 -1 -2 -8 -16 -16 -30 -18 -23 -3 -27 0 -27 22 0
28 6 31 30 16z m238 -12 c-7 -20 14 -35 41 -31 l26 4 -24 -14 c-23 -14 -24
-15 -5 -20 17 -4 17 -5 -3 -6 -12 0 -29 -11 -37 -23 -9 -12 -16 -19 -16 -14 0
5 -7 3 -15 -4 -13 -11 -14 -10 -9 5 6 15 4 16 -17 5 -20 -10 -22 -10 -11 1 18
20 15 28 -10 22 -20 -4 -21 -3 -5 7 9 6 17 15 17 20 0 5 -8 7 -17 4 -17 -5
-17 -5 0 6 9 6 14 16 11 22 -4 7 -2 8 5 4 6 -4 9 -13 5 -19 -3 -7 3 -2 14 11
14 15 22 18 25 10 3 -9 7 -7 12 5 8 19 19 24 13 5z m-266 -65 c-6 -2 -10 -9
-6 -14 6 -10 -26 -69 -38 -69 -4 0 -8 8 -8 19 0 22 37 71 53 70 8 0 8 -2 -1
-6z m296 -82 c11 -7 10 -15 -3 -47 -9 -21 -18 -44 -19 -51 -3 -19 -16 -28 -16
-12 0 12 -2 12 -9 0 -9 -14 -43 -9 -39 6 0 4 -4 21 -10 36 -13 32 -15 60 -5
70 9 10 85 8 101 -2z m-354 -47 c7 -28 -8 -54 -21 -39 -5 4 -2 10 5 12 10 4 9
8 -4 17 -9 7 -14 18 -10 24 12 19 23 14 30 -14z"/>
<path d="M631 1364 c-1 -6 6 -31 15 -57 l16 -47 74 0 c41 0 74 2 74 5 0 2 9
27 20 55 11 27 16 50 11 50 -5 0 -15 -17 -21 -37 -17 -51 -21 -55 -71 -57 -51
-3 -89 8 -89 26 -1 17 -28 76 -29 62z"/>
<path d="M717 1319 c-27 -16 -20 -25 18 -25 38 0 45 10 17 25 -11 6 -24 6 -35
0z"/>
<path d="M939 1299 c-8 -16 -9 -24 -1 -27 6 -2 9 -9 6 -16 -6 -16 22 -29 39
-19 7 3 3 -4 -8 -18 l-20 -24 28 25 c22 19 27 31 25 60 -3 30 -7 35 -30 38
-19 2 -30 -3 -39 -19z m61 -20 c0 -13 -37 -11 -46 3 -5 8 -2 9 9 5 10 -3 17
-2 17 4 0 6 5 7 10 4 6 -3 10 -10 10 -16z"/>
<path d="M575 1191 c-6 -11 9 -23 19 -14 9 9 7 23 -3 23 -6 0 -12 -4 -16 -9z"/>
<path d="M1013 1028 c2 -7 10 -12 16 -10 6 1 11 -3 11 -9 0 -5 4 -8 8 -5 5 3
19 -13 33 -34 14 -23 30 -38 37 -35 10 4 11 -1 7 -16 -5 -15 -3 -20 6 -17 9 3
15 24 17 56 3 54 1 56 -43 53 -12 -1 -34 5 -50 13 -36 19 -48 20 -42 4z"/>
<path d="M564 1004 c2 -10 8 -20 14 -22 17 -5 15 13 -2 27 -12 10 -14 9 -12
-5z"/>
<path d="M510 989 c0 -11 3 -18 8 -16 4 3 7 -11 7 -31 0 -28 4 -37 18 -38 12
-1 13 -1 2 3 -16 5 -18 26 -6 58 5 11 6 26 4 33 -8 20 -33 14 -33 -9z"/>
<path d="M572 853 c-6 -2 -9 -10 -6 -15 5 -8 -3 -9 -24 -5 -25 5 -32 3 -37
-13 -4 -11 -15 -20 -26 -20 -19 0 -19 -1 -4 -16 13 -14 21 -15 41 -5 14 6 33
11 44 11 20 0 50 35 50 57 0 13 -15 16 -38 6z"/>
<path d="M875 840 c17 -7 17 -9 3 -9 -15 -1 -16 -5 -6 -26 6 -14 16 -21 22
-17 6 3 25 7 43 9 24 1 34 -3 38 -18 4 -10 11 -19 17 -19 5 0 7 7 4 16 -5 12
-1 14 15 9 15 -5 19 -4 15 4 -4 6 -16 11 -26 11 -10 0 -31 5 -47 12 -15 6 -31
11 -35 10 -5 -1 -8 5 -8 13 0 10 -9 15 -27 14 -25 0 -26 -1 -8 -9z"/>
<path d="M470 830 c0 -5 7 -10 15 -10 8 0 15 5 15 10 0 6 -7 10 -15 10 -8 0
-15 -4 -15 -10z"/>
<path d="M722 768 c-20 -20 -14 -38 13 -38 27 0 33 21 12 39 -10 8 -17 7 -25
-1z"/>
<path d="M430 760 c0 -7 -7 -10 -15 -6 -8 3 -15 1 -15 -3 0 -9 24 -21 41 -21
12 0 12 27 -1 35 -5 3 -10 1 -10 -5z"/>
<path d="M1010 759 c0 -5 5 -7 10 -4 6 3 10 8 10 11 0 2 -4 4 -10 4 -5 0 -10
-5 -10 -11z"/>
<path d="M525 740 c-3 -5 -1 -10 4 -10 6 0 11 5 11 10 0 6 -2 10 -4 10 -3 0
-8 -4 -11 -10z"/>
<path d="M370 720 c0 -13 7 -20 20 -20 18 0 19 3 10 20 -6 11 -15 20 -20 20
-6 0 -10 -9 -10 -20z"/>
<path d="M1077 733 c-13 -12 -7 -33 8 -33 8 0 15 9 15 20 0 20 -11 26 -23 13z"/>
<path d="M1000 722 c0 -7 -10 -12 -22 -12 -19 0 -20 -2 -8 -10 16 -10 50 14
37 26 -4 4 -7 2 -7 -4z"/>
<path d="M428 713 c7 -3 16 -2 19 1 4 3 -2 6 -13 5 -11 0 -14 -3 -6 -6z"/>
<path d="M1028 713 c7 -3 16 -2 19 1 4 3 -2 6 -13 5 -11 0 -14 -3 -6 -6z"/>
<path d="M32 569 c3 -140 3 -141 31 -165 39 -34 115 -34 154 0 28 24 28 25 31
165 l4 141 -26 0 -26 0 0 -128 c0 -142 -8 -162 -63 -162 -47 0 -57 30 -57 167
l0 123 -26 0 -26 0 4 -141z"/>
<path d="M480 700 c0 -5 7 -7 15 -4 8 4 15 8 15 10 0 2 -7 4 -15 4 -8 0 -15
-4 -15 -10z"/>
<path d="M890 515 l0 -125 80 0 c63 0 80 3 80 15 0 10 -16 15 -62 17 l-63 3 0
35 c0 35 0 35 48 38 65 4 65 30 0 34 -48 3 -48 3 -48 38 l0 35 63 3 c46 2 62
7 62 17 0 12 -17 15 -80 15 l-80 0 0 -125z"/>
<path d="M1090 515 c0 -118 1 -125 20 -125 19 0 20 7 21 98 l1 97 15 -48 c18
-59 42 -60 59 -2 12 38 12 36 13 -52 1 -86 2 -93 21 -93 19 0 20 7 20 125 l0
125 -29 0 c-27 0 -30 -4 -42 -52 -7 -29 -14 -48 -15 -43 -2 6 -8 29 -14 53
-10 37 -14 42 -40 42 l-30 0 0 -125z"/>
<path d="M1310 515 c0 -104 2 -125 15 -125 11 0 15 12 15 45 0 43 1 45 28 45
23 0 32 -8 50 -45 15 -31 28 -45 42 -45 25 0 25 0 -2 54 -20 43 -21 46 -5 64
10 11 17 35 17 60 0 54 -25 72 -102 72 l-58 0 0 -125z m94 89 c26 -10 38 -41
26 -64 -8 -15 -21 -20 -50 -20 -40 0 -40 0 -40 38 0 21 3 42 7 45 8 9 36 9 57
1z"/>
<path d="M307 522 c-22 -24 -22 -86 -1 -107 10 -10 29 -15 48 -13 27 3 31 7
34 36 3 29 1 32 -22 32 -14 0 -26 -4 -26 -10 0 -5 7 -10 15 -10 8 0 15 -7 15
-15 0 -20 -46 -20 -54 1 -18 47 6 91 44 81 24 -6 36 8 14 17 -28 11 -50 6 -67
-12z"/>
<path d="M440 537 c0 -1 -9 -32 -19 -70 -11 -37 -15 -67 -10 -67 5 0 12 7 15
15 8 21 51 19 63 -2 20 -36 20 -5 0 60 -13 43 -25 67 -34 67 -8 0 -15 -1 -15
-3z m30 -69 c0 -10 -7 -18 -15 -18 -16 0 -19 17 -9 45 5 13 8 14 15 3 5 -7 9
-21 9 -30z"/>
<path d="M530 470 c0 -40 4 -70 10 -70 6 0 10 24 11 53 l0 52 20 -52 c30 -77
49 -71 49 17 0 40 -4 70 -10 70 -5 0 -10 -21 -10 -46 0 -53 -11 -51 -30 5 -22
66 -40 53 -40 -29z"/>
<path d="M650 470 l0 -70 28 0 c38 0 62 28 62 73 0 40 -27 67 -67 67 -22 0
-23 -4 -23 -70z m58 38 c15 -15 15 -61 0 -76 -26 -26 -38 -13 -38 38 0 51 12
64 38 38z"/>
<path d="M773 470 c-11 -38 -17 -70 -12 -70 6 0 12 7 15 15 8 21 51 19 63 -2
19 -35 20 -6 2 58 -25 88 -42 88 -68 -1z m47 4 c0 -15 -6 -24 -15 -24 -17 0
-18 4 -9 37 8 29 24 20 24 -13z"/>
<path d="M100 245 c0 -23 4 -25 43 -24 23 1 34 3 25 6 -10 2 -18 13 -18 24 0
14 -7 19 -25 19 -20 0 -25 -5 -25 -25z m40 0 c0 -8 -8 -15 -17 -14 -13 0 -14
2 -4 6 11 5 11 7 0 14 -11 7 -10 9 4 9 9 0 17 -7 17 -15z"/>
<path d="M190 246 c0 -21 5 -24 36 -24 31 0 33 2 18 13 -16 11 -16 13 2 23 17
10 17 11 2 12 -10 0 -18 -4 -18 -10 0 -5 -8 -10 -17 -10 -15 0 -16 2 -3 10 13
8 12 10 -2 10 -12 0 -18 -8 -18 -24z"/>
<path d="M278 245 c2 -14 6 -25 7 -25 1 0 5 11 7 25 3 16 1 25 -7 25 -8 0 -10
-9 -7 -25z"/>
<path d="M311 243 c0 -16 3 -22 6 -14 5 11 7 11 14 0 6 -10 9 -6 9 14 0 17 -5
27 -15 27 -10 0 -15 -9 -14 -27z"/>
<path d="M350 245 c0 -16 6 -25 15 -25 9 0 15 9 15 25 0 16 -6 25 -15 25 -9 0
-15 -9 -15 -25z m17 -7 c-3 -8 -6 -5 -6 6 -1 11 2 17 5 13 3 -3 4 -12 1 -19z"/>
<path d="M391 244 c0 -16 3 -23 6 -15 5 11 7 11 14 0 7 -11 9 -11 9 2 0 9 -7
22 -15 29 -13 11 -15 8 -14 -16z"/>
<path d="M435 245 c0 -14 5 -25 10 -25 6 0 10 11 10 25 0 14 -4 25 -10 25 -5
0 -10 -11 -10 -25z"/>
<path d="M474 255 c-8 -19 4 -35 24 -34 15 1 15 2 0 6 -10 2 -18 8 -18 13 0 5
8 14 18 19 16 10 16 10 -1 11 -10 0 -20 -7 -23 -15z"/>
<path d="M550 243 c0 -22 2 -25 10 -13 9 13 11 13 20 0 8 -12 10 -9 10 13 0
20 -5 27 -20 27 -15 0 -20 -7 -20 -27z"/>
<path d="M600 245 c0 -17 5 -25 18 -25 14 0 15 2 2 10 -13 9 -13 10 0 10 12 0
13 2 1 9 -11 7 -11 9 0 14 10 4 9 6 -3 6 -13 1 -18 -7 -18 -24z"/>
<path d="M640 246 c0 -17 5 -26 16 -26 10 0 14 7 12 22 -5 32 -28 35 -28 4z
m17 -8 c-3 -8 -6 -5 -6 6 -1 11 2 17 5 13 3 -3 4 -12 1 -19z"/>
<path d="M685 245 c0 -14 5 -25 10 -25 6 0 10 11 10 25 0 14 -4 25 -10 25 -5
0 -10 -11 -10 -25z"/>
<path d="M727 263 c-14 -14 -7 -43 11 -42 10 0 12 3 5 6 -7 2 -13 11 -13 18 0
7 6 16 13 18 6 3 7 6 1 6 -6 1 -14 -2 -17 -6z"/>
<path d="M766 254 c-10 -27 -7 -29 37 -31 23 0 34 1 25 4 -10 2 -18 14 -19 26
-1 20 -2 20 -9 -3 -5 -16 -8 -19 -9 -8 -1 23 -18 31 -25 12z"/>
<path d="M880 245 c0 -23 2 -25 21 -14 13 7 19 7 15 1 -4 -7 17 -10 59 -10 61
1 66 3 63 22 -4 29 -64 34 -73 6 -4 -11 -14 -20 -23 -20 -15 0 -15 2 -2 10 13
9 13 10 0 11 -10 0 -8 3 5 9 19 8 19 9 -2 9 -12 1 -25 -3 -28 -9 -3 -5 -12
-10 -18 -10 -7 0 -6 4 3 10 13 8 12 10 -2 10 -13 0 -18 -8 -18 -25z m120 0 c0
-8 -4 -15 -9 -15 -13 0 -22 16 -14 24 11 11 23 6 23 -9z m30 -1 c0 -8 -5 -12
-10 -9 -6 4 -8 11 -5 16 9 14 15 11 15 -7z"/>
<path d="M1050 247 c0 -14 6 -24 15 -24 9 0 15 10 15 24 0 14 -6 23 -15 23 -9
0 -15 -9 -15 -23z"/>
<path d="M1090 245 c0 -16 6 -25 15 -25 8 0 15 5 15 11 0 5 -4 7 -10 4 -5 -3
-10 1 -10 10 0 10 5 13 12 9 7 -4 8 -3 4 4 -12 20 -26 13 -26 -13z"/>
<path d="M1175 261 c-3 -5 0 -13 6 -17 8 -4 7 -9 -2 -15 -11 -7 -10 -9 4 -9 9
0 17 7 17 15 0 8 -6 15 -12 15 -9 0 -8 4 2 10 9 6 10 10 3 10 -6 0 -14 -4 -18
-9z"/>
<path d="M1211 265 c0 -5 4 -19 8 -30 8 -19 8 -19 15 3 6 19 10 21 22 11 12
-10 12 -14 2 -20 -10 -7 -9 -9 5 -9 9 0 17 7 17 15 0 8 -6 15 -12 15 -9 0 -8
4 2 10 12 8 11 10 -5 7 -11 -1 -25 -6 -32 -10 -6 -4 -14 -1 -16 5 -3 7 -5 9
-6 3z"/>
<path d="M1298 263 c6 -2 12 -14 13 -26 1 -20 2 -20 9 3 8 24 8 24 9 3 1 -17
7 -23 24 -22 21 0 21 1 2 9 -13 6 -15 9 -5 9 13 1 13 3 1 10 -11 7 -10 10 5
14 10 2 -1 5 -26 5 -25 0 -39 -2 -32 -5z"/>
<path d="M1380 258 c0 -5 7 -16 15 -24 13 -14 15 -13 15 9 0 14 -6 24 -15 24
-8 0 -15 -4 -15 -9z"/>
</g>
</svg>
